<svg width="24" height="24" viewBox="0 0 24 24" fill="none" xmlns="http://www.w3.org/2000/svg">
<path d="M11 20.975L8.525 18.7C7.075 17.3667 5.87083 16.225 4.9125 15.275C3.95417 14.325 3.18333 13.4667 2.6 12.7C2.01667 11.9333 1.60417 11.2125 1.3625 10.5375C1.12083 9.8625 1 9.14167 1 8.375C1 6.875 1.50417 5.60417 2.5125 4.5625C3.52083 3.52083 4.76667 3 6.25 3C7.2 3 8.07917 3.22083 8.8875 3.6625C9.69583 4.10417 10.4 4.75 11 5.6C11.7 4.7 12.4417 4.04167 13.225 3.625C14.0083 3.20833 14.85 3 15.75 3C17.1 3 18.2292 3.45833 19.1375 4.375C20.0458 5.29167 20.6 6.4 20.8 7.7H19.325C19.175 6.78333 18.7875 6.02083 18.1625 5.4125C17.5375 4.80417 16.7333 4.5 15.75 4.5C14.9 4.5 14.1083 4.75833 13.375 5.275C12.6417 5.79167 12.05 6.525 11.6 7.475H10.375C9.94167 6.54167 9.35833 5.8125 8.625 5.2875C7.89167 4.7625 7.1 4.5 6.25 4.5C5.15 4.5 4.25 4.87083 3.55 5.6125C2.85 6.35417 2.5 7.275 2.5 8.375C2.5 9.025 2.62917 9.65833 2.8875 10.275C3.14583 10.8917 3.59583 11.5917 4.2375 12.375C4.87917 13.1583 5.75 14.075 6.85 15.125C7.95 16.175 9.33333 17.4667 11 19C11.5333 18.5167 12.0375 18.0667 12.5125 17.65C12.9875 17.2333 13.4583 16.825 13.925 16.425L14.0875 16.5875C14.1958 16.6958 14.3167 16.8125 14.45 16.9375C14.5833 17.0625 14.7042 17.1792 14.8125 17.2875L14.975 17.45C14.525 17.85 14.0583 18.2583 13.575 18.675C13.0917 19.0917 12.575 19.55 12.025 20.05L11 20.975ZM18.25 17V13.75H15V12.25H18.25V9H19.75V12.25H23V13.75H19.75V17H18.25Z" fill="#1188EE" stroke="#1188EE" stroke-width="0.5"/>
</svg>
