<svg width="24" height="24" viewBox="0 0 24 24" fill="none" xmlns="http://www.w3.org/2000/svg">
<g clip-path="url(#clip0_50_51)">
<path d="M0.75 18C0.533333 18 0.354167 17.9292 0.2125 17.7875C0.0708333 17.6458 0 17.4667 0 17.25V16.675C0 16.025 0.345833 15.5 1.0375 15.1C1.72917 14.7 2.63333 14.5 3.75 14.5C3.95 14.5 4.14583 14.5042 4.3375 14.5125C4.52917 14.5208 4.71667 14.5417 4.9 14.575C4.76667 14.8583 4.66667 15.15 4.6 15.45C4.53333 15.75 4.5 16.0667 4.5 16.4V18H0.75ZM6.75 18C6.53333 18 6.35417 17.9292 6.2125 17.7875C6.07083 17.6458 6 17.4667 6 17.25V16.4C6 15.3167 6.55417 14.4375 7.6625 13.7625C8.77083 13.0875 10.2167 12.75 12 12.75C13.8 12.75 15.25 13.0875 16.35 13.7625C17.45 14.4375 18 15.3167 18 16.4V17.25C18 17.4667 17.9292 17.6458 17.7875 17.7875C17.6458 17.9292 17.4667 18 17.25 18H6.75ZM19.5 18V16.4C19.5 16.0667 19.4667 15.75 19.4 15.45C19.3333 15.15 19.2333 14.8583 19.1 14.575C19.2833 14.5417 19.4708 14.5208 19.6625 14.5125C19.8542 14.5042 20.05 14.5 20.25 14.5C21.3667 14.5 22.2708 14.7 22.9625 15.1C23.6542 15.5 24 16.025 24 16.675V17.25C24 17.4667 23.9292 17.6458 23.7875 17.7875C23.6458 17.9292 23.4667 18 23.25 18H19.5ZM12 14.25C10.65 14.25 9.5625 14.4542 8.7375 14.8625C7.9125 15.2708 7.5 15.7833 7.5 16.4V16.5H16.5V16.375C16.5 15.775 16.0875 15.2708 15.2625 14.8625C14.4375 14.4542 13.35 14.25 12 14.25ZM3.75 13.75C3.26667 13.75 2.85417 13.5792 2.5125 13.2375C2.17083 12.8958 2 12.4833 2 12C2 11.5167 2.17083 11.1042 2.5125 10.7625C2.85417 10.4208 3.26667 10.25 3.75 10.25C4.23333 10.25 4.64583 10.4208 4.9875 10.7625C5.32917 11.1042 5.5 11.5167 5.5 12C5.5 12.4833 5.32917 12.8958 4.9875 13.2375C4.64583 13.5792 4.23333 13.75 3.75 13.75ZM20.25 13.75C19.7667 13.75 19.3542 13.5792 19.0125 13.2375C18.6708 12.8958 18.5 12.4833 18.5 12C18.5 11.5167 18.6708 11.1042 19.0125 10.7625C19.3542 10.4208 19.7667 10.25 20.25 10.25C20.7333 10.25 21.1458 10.4208 21.4875 10.7625C21.8292 11.1042 22 11.5167 22 12C22 12.4833 21.8292 12.8958 21.4875 13.2375C21.1458 13.5792 20.7333 13.75 20.25 13.75ZM12 12C11.1667 12 10.4583 11.7083 9.875 11.125C9.29167 10.5417 9 9.83333 9 9C9 8.16667 9.29167 7.45833 9.875 6.875C10.4583 6.29167 11.1667 6 12 6C12.8333 6 13.5417 6.29167 14.125 6.875C14.7083 7.45833 15 8.16667 15 9C15 9.83333 14.7083 10.5417 14.125 11.125C13.5417 11.7083 12.8333 12 12 12ZM12 7.5C11.5833 7.5 11.2292 7.64167 10.9375 7.925C10.6458 8.20833 10.5 8.56667 10.5 9C10.5 9.41667 10.6458 9.77083 10.9375 10.0625C11.2292 10.3542 11.5833 10.5 12 10.5C12.4333 10.5 12.7917 10.3542 13.075 10.0625C13.3583 9.77083 13.5 9.41667 13.5 9C13.5 8.56667 13.3583 8.20833 13.075 7.925C12.7917 7.64167 12.4333 7.5 12 7.5Z" fill="#1188EE" stroke="#1188EE" stroke-width="0.5"/>
</g>
<defs>
<clipPath id="clip0_50_51">
<rect width="24" height="24" fill="white"/>
</clipPath>
</defs>
</svg>
