<svg width="15" height="13" viewBox="0 0 15 13" fill="none" xmlns="http://www.w3.org/2000/svg">
<path d="M1 5.88113C0.551961 5.88113 0.188752 6.24434 0.188752 6.69238C0.188752 7.14042 0.551961 7.50363 1 7.50363L1 5.88113ZM14.5736 7.26602C14.8905 6.94921 14.8905 6.43556 14.5736 6.11874L9.41088 0.955986C9.09407 0.639174 8.58042 0.639174 8.2636 0.955987C7.94679 1.2728 7.94679 1.78645 8.2636 2.10327L12.8527 6.69238L8.2636 11.2815C7.94679 11.5983 7.94679 12.112 8.2636 12.4288C8.58042 12.7456 9.09407 12.7456 9.41088 12.4288L14.5736 7.26602ZM1 7.50363L14 7.50363L14 5.88113L1 5.88113L1 7.50363Z" fill="#1188EE"/>
</svg>
